<svg xmlns="http://www.w3.org/2000/svg" width="20" height="20" viewBox="0 0 48 48" aria-hidden="true" focusable="false">
  <defs>
    <clipPath id="a"><path d="M44 24c0-1.7-.1-3.4-.4-5H24v9.5h11.9c-.5 3-2.9 5.6-6.1 6.9v5.7h9.8C41.6 37.8 44 31.5 44 24z"/></clipPath>
  </defs>
  <path fill="#EA4335" d="M24 9.5c3.9 0 7.4 1.3 10.1 3.9l7.6-7.6C35.9 2.2 30.3 0 24 0 14.8 0 6.9 5.1 3 12.6l9.3 7.2C13.9 15.1 18.4 9.5 24 9.5z"/>
  <path fill="#34A853" d="M46.5 24c0-1.5-.1-2.9-.4-4.3H24v8.2h12.8c-.6 2.9-3 5.3-6.1 6.9v5.7h9.9C44.9 35.1 46.5 30.1 46.5 24z"/>
  <path fill="#FBBC05" d="M7.9 28.1A14.8 14.8 0 0 1 6 24c0-1.7.3-3.4.9-5L0 11.3C.7 14.5 1.9 18.7 4.7 22.1l3.2 3.9z"/>
  <path fill="#4285F4" d="M24 48c6.5 0 12-2.1 16.1-5.8l-7.6-6.2C29.1 36.9 26.7 37.5 24 37.5c-5.6 0-10.1-5.6-11.7-13.3L2.9 31.6C6.9 38.9 14.8 48 24 48z"/>
</svg>