<svg width="1938" height="2500" viewBox="0 0 1938 2500" fill="none" xmlns="http://www.w3.org/2000/svg">
    <path d="M1937.07 0H0V2500H1937.07V0Z" fill="#005AE6"/>
    <path d="M1776.74 2106.88H198.942C192.899 2106.88 188 2101.98 188 2095.94C188 2089.9 192.899 2085 198.942 2085H1776.74C1782.79 2085 1787.69 2089.9 1787.69 2095.94C1787.69 2101.98 1782.79 2106.88 1776.74 2106.88Z" fill="#003C99"/>
    <path d="M1646.17 487.649C1635.07 421.865 1533.76 392.167 1535.75 435.103L1071.35 437.823C1039.19 438.011 1013.1 466.948 1013.08 502.488L1012.11 1723.86C1012.08 1760.68 1038.62 1790.78 1071.4 1791.06L1545.48 1795.13C1548.42 1801.31 1553.93 1806.93 1562.61 1811.62C1616.97 1812.78 1643.05 1785.93 1652.58 1755.58C1655.68 1747.43 1657.37 1738.43 1657.29 1728.94C1655.39 1713.04 1649.61 503.074 1646.17 487.649Z" fill="#66A2FF"/>
    <path d="M1557.54 1811.82L1013.36 1808.31C979.405 1808.09 951.939 1777.17 952 1739.29L954.042 483.22C954.101 446.689 981.134 417.015 1014.43 416.907L1548.04 415.173C1581.6 415.064 1609.05 444.696 1609.33 481.393L1619 1743.27C1619.29 1781.33 1591.77 1812.04 1557.54 1811.82Z" fill="white"/>
    <path d="M1565.05 1802.68C1562.79 1802.98 1560.47 1803.13 1558.17 1803.11L1014.17 1798.99C984.987 1798.77 961.137 1771.67 961.186 1738.6L963.066 483.911C963.114 452.02 986.587 425.993 1015.21 425.869L1548.77 423.548C1549.61 423.545 1550.45 423.562 1551.28 423.601C1564.71 424.224 1577.26 430.34 1586.63 440.808C1596.22 451.507 1601.55 465.685 1601.67 480.754L1611.21 1743.91C1611.44 1773.85 1591.66 1799.11 1565.05 1802.68Z" fill="black"/>
    <path d="M1582.96 487.104L1592.13 1745.86L979.287 1742.19L980.85 487.104H1582.96Z" fill="#0050CC"/>
    <path d="M1369.74 1120.51H1205.67C1191.79 1120.51 1180.43 1109.15 1180.43 1095.27C1180.43 1081.39 1191.79 1070.03 1205.67 1070.03H1369.74C1383.62 1070.03 1394.98 1081.39 1394.98 1095.27C1394.98 1109.15 1383.62 1120.51 1369.74 1120.51Z" fill="#FF9F34"/>
    <path d="M1494.55 933.137H1070.33C1056.44 933.137 1045.09 921.779 1045.09 907.897C1045.09 894.015 1056.44 882.657 1070.33 882.657H1494.55C1508.43 882.657 1519.79 894.015 1519.79 907.897C1519.79 921.779 1508.43 933.137 1494.55 933.137Z" fill="white"/>
    <path d="M1494.55 1014.43H1070.33C1056.44 1014.43 1045.09 1003.07 1045.09 989.19C1045.09 975.308 1056.44 963.95 1070.33 963.95H1494.55C1508.43 963.95 1519.79 975.308 1519.79 989.19C1519.79 1003.07 1508.43 1014.43 1494.55 1014.43Z" fill="white"/>
    <path d="M1149.54 991.427C1149.54 996.335 1145.56 1000.31 1140.65 1000.31C1135.74 1000.31 1131.77 996.335 1131.77 991.427C1131.77 986.519 1135.75 982.541 1140.65 982.541C1145.56 982.541 1149.54 986.519 1149.54 991.427Z" fill="#80B2FF"/>
    <path d="M1179.76 993.287C1180.78 988.486 1177.72 983.768 1172.92 982.747C1168.12 981.726 1163.4 984.79 1162.38 989.59C1161.36 994.39 1164.42 999.109 1169.22 1000.13C1174.02 1001.15 1178.74 998.087 1179.76 993.287Z" fill="#80B2FF"/>
    <path d="M1207.85 997.711C1211.32 994.24 1211.32 988.614 1207.85 985.144C1204.38 981.674 1198.76 981.674 1195.29 985.144C1191.82 988.614 1191.82 994.24 1195.29 997.711C1198.76 1001.18 1204.38 1001.18 1207.85 997.711Z" fill="#80B2FF"/>
    <path d="M1238.32 997.712C1241.79 994.241 1241.79 988.615 1238.32 985.145C1234.85 981.675 1229.22 981.675 1225.75 985.145C1222.28 988.615 1222.28 994.241 1225.75 997.712C1229.22 1001.18 1234.85 1001.18 1238.32 997.712Z" fill="#80B2FF"/>
    <path d="M1265.97 999.642C1270.5 997.763 1272.65 992.565 1270.78 988.031C1268.9 983.497 1263.7 981.344 1259.17 983.222C1254.63 985.1 1252.48 990.298 1254.36 994.832C1256.23 999.367 1261.43 1001.52 1265.97 999.642Z" fill="#80B2FF"/>
    <path d="M1301.64 993.592C1302.76 988.816 1299.81 984.03 1295.03 982.903C1290.26 981.775 1285.47 984.732 1284.34 989.508C1283.21 994.285 1286.17 999.071 1290.95 1000.2C1295.72 1001.33 1300.51 998.369 1301.64 993.592Z" fill="#80B2FF"/>
    <path d="M1329.72 997.712C1333.19 994.241 1333.19 988.615 1329.72 985.145C1326.25 981.675 1320.62 981.675 1317.15 985.145C1313.68 988.615 1313.68 994.241 1317.15 997.712C1320.62 1001.18 1326.25 1001.18 1329.72 997.712Z" fill="#80B2FF"/>
    <path d="M1360.18 997.712C1363.65 994.242 1363.65 988.616 1360.18 985.146C1356.71 981.675 1351.09 981.675 1347.62 985.146C1344.15 988.616 1344.15 994.242 1347.62 997.712C1351.09 1001.18 1356.71 1001.18 1360.18 997.712Z" fill="#80B2FF"/>
    <path d="M1387.84 999.64C1392.37 997.761 1394.52 992.563 1392.65 988.029C1390.77 983.495 1385.57 981.342 1381.04 983.22C1376.5 985.098 1374.35 990.296 1376.23 994.83C1378.1 999.365 1383.3 1001.52 1387.84 999.64Z" fill="#80B2FF"/>
    <path d="M1351.52 783.47C1389.6 745.388 1389.6 683.644 1351.52 645.561C1313.43 607.479 1251.69 607.479 1213.61 645.561C1175.52 683.644 1175.52 745.387 1213.61 783.47C1251.69 821.552 1313.43 821.552 1351.52 783.47Z" fill="white"/>
    <path d="M1282.72 710.587C1292.24 710.587 1301.03 705.95 1306.64 698.869C1310.79 693.743 1313.23 687.151 1313.23 679.826C1313.23 662.982 1299.56 649.065 1282.72 649.065C1265.63 649.065 1251.96 662.982 1251.96 679.826C1251.96 687.151 1254.39 693.743 1258.55 698.869C1264.16 705.95 1272.95 710.587 1282.72 710.587Z" fill="#005CEA"/>
    <path d="M1336.77 765.4C1336.77 784.812 1228.37 784.812 1228.37 765.4L1228.4 742.778C1232.68 711.853 1327.96 710.554 1336.79 742.778L1336.77 765.4Z" fill="#005CEA"/>
    <path d="M1091.37 984.536V983.183C1091.37 977.708 1086.91 973.252 1081.43 973.252C1075.96 973.252 1071.5 977.708 1071.5 983.183V984.536H1070V1002.44C1070 1005.53 1092.94 1005.53 1092.94 1002.44V984.536H1091.37ZM1075.04 983.183C1075.04 979.747 1077.16 976.627 1081.43 976.627C1085.7 976.627 1087.89 979.548 1087.89 983.183V984.536H1075.04V983.183ZM1083.12 993.552V998.722C1083.12 999.651 1082.33 1000.31 1081.4 1000.31C1080.47 1000.31 1079.81 999.651 1079.81 998.722V993.552C1078.88 993.021 1078.22 992.092 1078.22 990.899C1078.22 989.175 1079.68 987.717 1081.4 987.717C1083.12 987.717 1084.58 989.175 1084.58 990.899C1084.58 992.093 1083.92 993.022 1083.12 993.552Z" fill="#4D4D4D"/>
    <path d="M1081.46 906.066C1083.47 906.066 1085.32 905.087 1086.51 903.593C1087.38 902.511 1087.9 901.12 1087.9 899.575C1087.9 896.021 1085.01 893.084 1081.46 893.084C1077.85 893.084 1074.97 896.021 1074.97 899.575C1074.97 901.121 1075.48 902.512 1076.36 903.593C1077.54 905.088 1079.4 906.066 1081.46 906.066Z" fill="#4D4D4D"/>
    <path d="M1092.86 917.633C1092.86 921.729 1069.87 921.729 1069.87 917.633L1070 912.859C1070.9 906.333 1091.01 906.059 1092.87 912.859L1092.86 917.633Z" fill="#4D4D4D"/>
    <path d="M1230.05 915.303H1137.09C1133.01 915.303 1129.68 911.97 1129.68 907.896C1129.68 903.822 1133.01 900.49 1137.09 900.49H1230.05C1234.13 900.49 1237.46 903.823 1237.46 907.896C1237.46 911.97 1234.13 915.303 1230.05 915.303Z" fill="#80B2FF"/>
    <path d="M1352.66 915.303H1259.7C1255.63 915.303 1252.29 911.97 1252.29 907.896C1252.29 903.822 1255.63 900.49 1259.7 900.49H1352.66C1356.74 900.49 1360.07 903.823 1360.07 907.896C1360.07 911.97 1356.74 915.303 1352.66 915.303Z" fill="#80B2FF"/>
    <path d="M1157.41 1380.91V1564.81C1157.41 1585.24 1407.46 1585.24 1407.46 1564.81V1380.91H1157.41Z" fill="white"/>
    <path d="M1312.46 1457.61C1316.38 1441.02 1306.1 1424.39 1289.51 1420.47C1272.92 1416.55 1256.29 1426.83 1252.37 1443.42C1248.46 1460.01 1258.73 1476.64 1275.32 1480.56C1291.92 1484.48 1308.54 1474.2 1312.46 1457.61Z" fill="#005CEA"/>
    <path d="M1282.44 1543.34C1275.45 1543.34 1269.78 1537.68 1269.78 1530.69V1459.88H1295.09V1530.69C1295.09 1537.68 1289.42 1543.34 1282.44 1543.34Z" fill="#005CEA"/>
    <path d="M1385.55 1367.81H1360.24V1355.43C1360.24 1312.52 1325.33 1277.62 1282.44 1277.62C1239.54 1277.62 1204.63 1312.52 1204.63 1355.43V1367.81H1179.33V1355.43C1179.33 1298.57 1225.58 1252.31 1282.44 1252.31C1339.29 1252.31 1385.55 1298.57 1385.55 1355.43V1367.81Z" fill="white"/>
    <path d="M951.6 1122.85L939.976 1169.57L937.864 1178.26C935.517 1189.29 862.619 1184.6 867.783 1171.68L872.128 1162.18L894.548 1112.99L951.6 1122.85Z" fill="#F7A58E"/>
    <path d="M994.221 1053.54C994.964 1104.2 971.447 1145.4 934.646 1145.22C897.845 1145.04 862.241 1113.82 860.953 1052.9C860.133 1014.09 891.126 982.752 927.927 982.93C964.729 983.108 993.652 1014.73 994.221 1053.54Z" fill="#F7A58E"/>
    <path d="M929.034 969C929.034 969 1002.36 972.62 1008.46 1028.16C1016.6 1076.9 980.036 1041.06 965.106 1073.78C948.005 1111.24 965.433 1138.66 987.66 1146.11C967.901 1173.7 854.913 1172.7 825.837 1124.3C805.923 1063.58 834.098 972.368 929.034 969Z" fill="black"/>
    <path d="M980.452 1071.77C981.063 1079.29 975.462 1085.88 967.942 1086.49C960.422 1087.11 953.83 1081.5 953.219 1073.98C952.608 1066.46 958.208 1059.87 965.729 1059.26C973.25 1058.65 979.841 1064.25 980.452 1071.77Z" fill="#F7A58E"/>
    <path d="M969.221 2014.26C972.658 2010.61 988.873 2010.56 990.353 2015.94C991.833 2021.33 988.976 2025.17 995.818 2033.71C991.88 2034.84 977.914 2034.95 973.639 2033.71C969.364 2032.46 965.783 2017.9 969.221 2014.26Z" fill="white"/>
    <path d="M942.428 2032.66H981.94C985.634 1865.46 984.927 1683.45 983.597 1546.37C983.119 1497.28 981.765 1472.45 972.865 1442.97C954.881 1383.46 870.334 1401.78 864.335 1455.72C861.835 1485.66 860.005 1544.06 915.342 1742.49C891.378 1829.86 933.186 1934.61 942.428 2032.66Z" fill="#00050D"/>
    <path d="M1004.07 2035.21C998.249 2034.89 984.66 2029.29 982.097 2025.42C978.32 2029.65 970.456 2030.81 960.964 2029.4C949.752 2027.72 948.272 2022.51 940.23 2023.21C936.839 2032.64 928.579 2053.79 936.548 2058.7C936.548 2058.7 983.666 2058.7 1019.62 2058.7C1027.04 2051.92 1026.84 2037.47 1004.07 2035.21Z" fill="white"/>
    <path d="M768.057 2018.49C770.946 2015.43 784.572 2015.38 785.816 2019.91C787.059 2024.43 784.659 2027.66 790.409 2034.83C787.1 2035.79 775.362 2035.88 771.77 2034.83C768.177 2033.79 765.168 2021.55 768.057 2018.49Z" fill="white"/>
    <path d="M898.274 1454.21C890.194 1392.56 780.531 1398.9 773.241 1452.72C770.607 1481.68 762.563 1525.27 783.17 1740.39C739.697 1822.48 751.981 1940.28 738.995 2026.99C737.561 2040.18 774.934 2043.35 777.836 2031.59C817.664 1870.72 873.318 1690.23 894.007 1556.38C901.512 1507.87 902.27 1484.74 898.274 1454.21Z" fill="#00050D"/>
    <path d="M797.462 2032.66C791.642 2032.35 783.061 2024.77 780.499 2020.91C776.722 2025.13 769.512 2030.81 760.02 2029.4C748.808 2027.72 747.328 2022.51 739.286 2023.21C735.895 2032.64 727.635 2053.79 735.604 2058.7C735.604 2058.7 780.455 2058.7 816.411 2058.7C823.826 2051.93 820.235 2034.92 797.462 2032.66Z" fill="white"/>
    <path d="M1083.21 1127.93L1062.76 1132.47C1063.22 1143.23 1061.93 1160.42 1062.76 1179.4L1097.16 1174.87C1091.92 1155.76 1086.87 1139.01 1083.21 1127.93Z" fill="#F7A58E"/>
    <path d="M1062.76 1179.4C1062 1217.01 1060.99 1233.12 1060.68 1247.94L958.62 1182.49C927.52 1173.04 891.254 1234.6 930.576 1262.38C930.576 1262.38 1066.5 1339.13 1097.07 1317.02C1113.61 1305.06 1109.32 1219.27 1097.16 1174.87L1062.76 1179.4Z" fill="white"/>
    <path d="M1092.46 1107.93C1083 1096.84 1062.25 1100.71 1060.68 1101.01L1062.67 1131.66C1063.14 1146.8 1081.91 1147.31 1089.56 1134.26C1089.56 1134.26 1100.64 1118.84 1092.46 1107.93Z" fill="#F7A58E"/>
    <path d="M1070.72 1103.91C1063.84 1070.51 1056.88 1074.99 1056.88 1074.99C1056.88 1074.99 1058 1086.79 1061.11 1107.61C1063.44 1119.4 1071.57 1112.29 1070.72 1103.91Z" fill="#F7A58E"/>
    <path d="M982.734 1270.45C989.664 1236.72 993.381 1203.42 958.619 1182.48C938.008 1170.07 871.757 1161.2 840.78 1171.45C809.566 1185.4 816.316 1246.24 810.469 1342.32C788.96 1390.27 779.609 1406.02 773.241 1452.72C773.241 1452.72 784.748 1487.9 865.816 1487.95C902.627 1487.97 956.844 1484.7 981.507 1465.92C979.047 1434.08 965.73 1403.39 960.18 1358.31C960.18 1358.31 982.232 1274.32 982.734 1270.45Z" fill="white"/>
    <path d="M824.13 1178.24C786.081 1207.29 748.968 1252.97 731.428 1277.23C713.889 1301.49 668.458 1398.98 668.458 1398.98L697.371 1420.3L775.578 1313.73L871.121 1235.37C904.276 1201.53 861.19 1149.94 824.13 1178.24Z" fill="white"/>
    <path d="M656.345 1423.7L675.086 1384.98C679.495 1396.63 700.95 1407.25 707.111 1407.02C707.111 1407.02 686.959 1436.02 682.032 1440.95C677.105 1445.88 656.752 1437.54 656.345 1423.7Z" fill="#F7A58E"/>
    <path d="M686.773 1434.48C686.698 1434.77 686.782 1435.16 686.707 1435.45C685.766 1449.54 674.935 1456.21 672.004 1457.79C671.771 1457.98 671.51 1458.03 671.25 1458.09C681.437 1456.05 684.488 1469.7 679.305 1472.85C664.312 1482.99 642.946 1469.03 641.138 1460.57C639.303 1451.97 656.382 1423.54 656.382 1423.54C665.093 1416.5 687.391 1417.6 686.773 1434.48Z" fill="#F7A58E"/>
    <path d="M686.707 1435.45C686.106 1451.38 671.752 1457.93 671.491 1457.98C663.094 1457.75 660.102 1457.24 652.088 1457.26C657.318 1454.71 668.045 1447.93 663.892 1434.75C672.106 1428.47 684.462 1433.96 686.707 1435.45Z" fill="#E6856A"/>
    <path d="M686.924 1433.64C689.132 1446.78 688.199 1465.52 685.073 1473.76C685.073 1473.76 677.013 1474.18 677.768 1458.96C677.964 1455 677.393 1446.4 673.474 1443.53C661.408 1435.56 659.467 1428.25 663.893 1422.24C669.791 1414.25 686.46 1422.36 686.924 1433.64Z" fill="#F7A58E"/>
    <path d="M649.581 1469.57C656.127 1474.1 673.455 1482.91 676.19 1480.73C678.925 1478.56 665.069 1463.81 656.126 1461.86C647.182 1459.91 646.227 1467.24 649.581 1469.57Z" fill="#F7A58E"/>
</svg>
